<svg width="253" height="63" viewBox="0 0 253 63" fill="none" xmlns="http://www.w3.org/2000/svg">
<path d="M121.832 2.976V5.862H120.932V3.798H118.016V11.178H119.462V12H115.664V11.178H117.116V3.798H114.206V5.862H113.306V2.976H121.832ZM124.721 11.256H125.855V12H122.573V11.256H123.857V3.264H122.573V2.52H124.721V11.256ZM128.405 11.256V7.896C128.405 7.376 128.287 6.968 128.051 6.672C127.819 6.376 127.453 6.228 126.953 6.228C126.533 6.228 126.155 6.336 125.819 6.552C125.483 6.764 125.215 7.074 125.015 7.482C124.819 7.886 124.721 8.374 124.721 8.946L124.517 7.668H124.757C124.837 7.2 124.987 6.804 125.207 6.48C125.431 6.152 125.715 5.902 126.059 5.73C126.403 5.558 126.797 5.472 127.241 5.472C127.937 5.472 128.449 5.672 128.777 6.072C129.105 6.472 129.269 7.034 129.269 7.758V11.256H130.493V12H127.277V11.256H128.405ZM134.642 12.114C133.982 12.114 133.41 11.974 132.926 11.694C132.442 11.414 132.068 11.028 131.804 10.536C131.54 10.04 131.408 9.47 131.408 8.826C131.408 8.174 131.54 7.598 131.804 7.098C132.072 6.598 132.444 6.206 132.92 5.922C133.4 5.638 133.958 5.496 134.594 5.496C135.234 5.496 135.788 5.636 136.256 5.916C136.724 6.196 137.084 6.584 137.336 7.08C137.588 7.576 137.714 8.148 137.714 8.796C137.714 8.872 137.712 8.932 137.708 8.976C137.708 9.02 137.704 9.058 137.696 9.09H136.844C136.848 9.042 136.85 8.99 136.85 8.934C136.854 8.874 136.856 8.806 136.856 8.73C136.856 8.254 136.764 7.832 136.58 7.464C136.4 7.092 136.142 6.8 135.806 6.588C135.47 6.376 135.066 6.27 134.594 6.27C134.134 6.27 133.73 6.38 133.382 6.6C133.034 6.816 132.764 7.116 132.572 7.5C132.38 7.88 132.284 8.322 132.284 8.826C132.284 9.314 132.378 9.746 132.566 10.122C132.758 10.494 133.03 10.786 133.382 10.998C133.734 11.21 134.152 11.316 134.636 11.316C135.14 11.316 135.576 11.198 135.944 10.962C136.316 10.722 136.592 10.396 136.772 9.984L137.588 10.29C137.352 10.854 136.974 11.3 136.454 11.628C135.938 11.952 135.334 12.114 134.642 12.114ZM131.954 9.09V8.424H137.438L137.69 9.09H131.954Z" fill="black"/>
<path d="M11.718 49V46.534H14.166C16.422 46.534 18.39 46.066 20.07 45.13C21.762 44.182 23.076 42.868 24.012 41.188C24.96 39.508 25.434 37.576 25.434 35.392C25.434 33.22 24.96 31.306 24.012 29.65C23.076 27.994 21.762 26.704 20.07 25.78C18.39 24.856 16.422 24.394 14.166 24.394H11.718V21.928H14.166C16.986 21.928 19.452 22.504 21.564 23.656C23.688 24.796 25.338 26.38 26.514 28.408C27.69 30.424 28.278 32.752 28.278 35.392C28.278 38.068 27.69 40.432 26.514 42.484C25.338 44.524 23.688 46.12 21.564 47.272C19.452 48.424 16.986 49 14.166 49H11.718ZM0.99 49V46.534H5.346V24.394H0.99V21.928H12.654V24.394H8.028V46.534H12.654V49H0.99ZM47.0933 49C46.6013 49 46.2233 48.844 45.9593 48.532C45.7073 48.22 45.5813 47.782 45.5813 47.218V41.458L45.8153 40.864L45.6893 38.686L45.5813 37.552V36.094C45.5813 35.11 45.3773 34.306 44.9693 33.682C44.5733 33.058 43.9973 32.596 43.2413 32.296C42.4853 31.996 41.5733 31.846 40.5053 31.846C38.9093 31.846 37.6733 32.164 36.7973 32.8C35.9333 33.424 35.3573 34.366 35.0693 35.626L32.5853 35.104C32.8253 33.844 33.2753 32.8 33.9353 31.972C34.5953 31.132 35.4713 30.508 36.5633 30.1C37.6673 29.68 39.0113 29.47 40.5953 29.47C42.2513 29.47 43.6373 29.704 44.7533 30.172C45.8813 30.628 46.7333 31.33 47.3093 32.278C47.8853 33.226 48.1733 34.45 48.1733 35.95V46.768H50.9993V49H47.0933ZM38.0573 49.252C36.0653 49.252 34.5533 48.814 33.5213 47.938C32.4893 47.05 31.9733 45.748 31.9733 44.032C31.9733 42.448 32.4293 41.242 33.3413 40.414C34.2533 39.574 35.7173 38.944 37.7333 38.524L46.3553 36.688V38.542L38.1653 40.396C36.9893 40.672 36.1073 41.08 35.5193 41.62C34.9433 42.148 34.6553 42.898 34.6553 43.87C34.6553 44.926 34.9793 45.718 35.6273 46.246C36.2753 46.762 37.2233 47.02 38.4713 47.02C39.8513 47.02 41.0873 46.702 42.1793 46.066C43.2713 45.43 44.1293 44.494 44.7533 43.258C45.3773 42.022 45.6893 40.498 45.6893 38.686L46.3733 42.934H45.4553C45.1553 44.938 44.3753 46.492 43.1153 47.596C41.8673 48.7 40.1813 49.252 38.0573 49.252ZM60.667 46.768H64.357V49H54.187V46.768H58.075V32.062H54.187V29.83H60.667V46.768ZM57.589 21.748H60.901V25.186H57.589V21.748ZM73.537 46.768H77.479V49H67.003V46.768H70.945V22.792H67.003V20.56H73.537V46.768ZM90.9458 29.83H99.8738V32.062H97.4798L89.5598 51.556C88.9118 53.164 87.9098 54.4 86.5538 55.264C85.2098 56.128 83.5358 56.56 81.5318 56.56H79.6418V54.274H81.5318C82.8758 54.274 84.0458 53.992 85.0418 53.428C86.0498 52.876 86.7818 52.06 87.2378 50.98L88.6058 47.614L88.1558 49.846L80.8298 32.062H78.1838V29.83H87.2918V32.062H83.6558L90.1178 48.208L87.7598 46.12H90.2438L88.8938 47.344L94.8878 32.062H90.9458V29.83ZM126.253 49.378C124.273 49.378 122.455 49.036 120.799 48.352C119.143 47.668 117.709 46.702 116.497 45.454C115.285 44.206 114.343 42.73 113.671 41.026C113.011 39.31 112.681 37.432 112.681 35.392C112.681 33.364 113.005 31.504 113.653 29.812C114.301 28.12 115.225 26.662 116.425 25.438C117.637 24.214 119.071 23.266 120.727 22.594C122.383 21.91 124.207 21.568 126.199 21.568C128.155 21.568 129.847 21.892 131.275 22.54C132.703 23.188 133.855 24.112 134.731 25.312C135.619 26.512 136.225 27.946 136.549 29.614H137.413L136.675 32.548C136.123 29.932 134.923 27.892 133.075 26.428C131.227 24.952 128.959 24.214 126.271 24.214C124.135 24.214 122.263 24.688 120.655 25.636C119.047 26.572 117.793 27.88 116.893 29.56C115.993 31.24 115.543 33.184 115.543 35.392C115.543 37.06 115.807 38.59 116.335 39.982C116.863 41.374 117.601 42.574 118.549 43.582C119.497 44.59 120.625 45.37 121.933 45.922C123.241 46.462 124.681 46.732 126.253 46.732C128.029 46.732 129.637 46.384 131.077 45.688C132.517 44.992 133.711 44.008 134.659 42.736C135.619 41.452 136.273 39.958 136.621 38.254L139.393 38.83C138.961 40.954 138.139 42.808 136.927 44.392C135.715 45.976 134.197 47.206 132.373 48.082C130.561 48.946 128.521 49.378 126.253 49.378ZM136.675 32.548V21.928H139.357V32.548H136.675ZM149.151 46.768H152.895V49H142.617V46.768H146.559V32.062H142.617V29.83H149.151V46.768ZM156.513 32.584C156.297 32.524 156.063 32.476 155.811 32.44C155.571 32.404 155.307 32.386 155.019 32.386C153.243 32.386 151.821 33.052 150.753 34.384C149.685 35.704 149.151 37.54 149.151 39.892L148.539 35.698H149.277C149.445 34.426 149.793 33.334 150.321 32.422C150.849 31.498 151.533 30.79 152.373 30.298C153.225 29.794 154.221 29.542 155.361 29.542C155.577 29.542 155.769 29.554 155.937 29.578C156.117 29.59 156.309 29.614 156.513 29.65V32.584ZM174.875 32.062H171.167V29.83H177.467V46.768H181.211V49H174.875V32.062ZM164.165 29.83V42.052C164.165 43.624 164.513 44.866 165.209 45.778C165.917 46.678 167.027 47.128 168.539 47.128C169.751 47.128 170.831 46.822 171.779 46.21C172.739 45.586 173.495 44.692 174.047 43.528C174.599 42.364 174.875 40.966 174.875 39.334L175.505 43.168H174.749C174.425 45.232 173.621 46.792 172.337 47.848C171.065 48.892 169.499 49.414 167.639 49.414C165.575 49.414 164.045 48.802 163.049 47.578C162.065 46.354 161.573 44.656 161.573 42.484V32.062H158.099V29.83H164.165ZM194.095 49.342C192.103 49.342 190.369 48.922 188.893 48.082C187.429 47.242 186.289 46.084 185.473 44.608C184.669 43.12 184.267 41.41 184.267 39.478C184.267 38.014 184.489 36.676 184.933 35.464C185.377 34.24 186.013 33.184 186.841 32.296C187.669 31.396 188.653 30.706 189.793 30.226C190.933 29.734 192.205 29.488 193.609 29.488C194.965 29.488 196.093 29.71 196.993 30.154C197.905 30.586 198.613 31.186 199.117 31.954C199.621 32.71 199.945 33.58 200.089 34.564H200.719L200.197 37.282C200.041 36.202 199.687 35.254 199.135 34.438C198.583 33.61 197.863 32.968 196.975 32.512C196.087 32.044 195.061 31.81 193.897 31.81C192.505 31.81 191.281 32.14 190.225 32.8C189.181 33.448 188.365 34.348 187.777 35.5C187.201 36.64 186.913 37.966 186.913 39.478C186.913 40.942 187.207 42.238 187.795 43.366C188.395 44.482 189.229 45.358 190.297 45.994C191.377 46.63 192.649 46.948 194.113 46.948C195.625 46.948 196.927 46.618 198.019 45.958C199.111 45.286 199.909 44.386 200.413 43.258L202.807 44.32C202.123 45.868 201.025 47.092 199.513 47.992C198.013 48.892 196.207 49.342 194.095 49.342ZM200.197 37.282V29.83H202.789V37.282H200.197ZM213.175 46.768H216.865V49H206.695V46.768H210.583V32.062H206.695V29.83H213.175V46.768ZM210.097 21.748H213.409V25.186H210.097V21.748ZM234.828 49C234.336 49 233.958 48.844 233.694 48.532C233.442 48.22 233.316 47.782 233.316 47.218V41.458L233.55 40.864L233.424 38.686L233.316 37.552V36.094C233.316 35.11 233.112 34.306 232.704 33.682C232.308 33.058 231.732 32.596 230.976 32.296C230.22 31.996 229.308 31.846 228.24 31.846C226.644 31.846 225.408 32.164 224.532 32.8C223.668 33.424 223.092 34.366 222.804 35.626L220.32 35.104C220.56 33.844 221.01 32.8 221.67 31.972C222.33 31.132 223.206 30.508 224.298 30.1C225.402 29.68 226.746 29.47 228.33 29.47C229.986 29.47 231.372 29.704 232.488 30.172C233.616 30.628 234.468 31.33 235.044 32.278C235.62 33.226 235.908 34.45 235.908 35.95V46.768H238.734V49H234.828ZM225.792 49.252C223.8 49.252 222.288 48.814 221.256 47.938C220.224 47.05 219.708 45.748 219.708 44.032C219.708 42.448 220.164 41.242 221.076 40.414C221.988 39.574 223.452 38.944 225.468 38.524L234.09 36.688V38.542L225.9 40.396C224.724 40.672 223.842 41.08 223.254 41.62C222.678 42.148 222.39 42.898 222.39 43.87C222.39 44.926 222.714 45.718 223.362 46.246C224.01 46.762 224.958 47.02 226.206 47.02C227.586 47.02 228.822 46.702 229.914 46.066C231.006 45.43 231.864 44.494 232.488 43.258C233.112 42.022 233.424 40.498 233.424 38.686L234.108 42.934H233.19C232.89 44.938 232.11 46.492 230.85 47.596C229.602 48.7 227.916 49.252 225.792 49.252ZM247.771 46.768H251.713V49H241.237V46.768H245.179V22.792H241.237V20.56H247.771V46.768Z" fill="black"/>
<line x1="1" y1="6.5" x2="107" y2="6.5" stroke="black"/>
<line x1="146" y1="6.5" x2="252" y2="6.5" stroke="black"/>
<line x1="1" y1="62.5" x2="252" y2="62.5" stroke="black"/>
</svg>
